<svg class="hidden">
  <symbol fill="none" xmlns="http://www.w3.org/2000/svg" viewBox="0 0 176 19" id="horizontal-logo">
    <path d="M14.238 13.828c0 .649-.12 1.207-.363 1.676a3.61 3.61 0 01-.95 1.195 5.236 5.236 0 01-1.382.809 9.933 9.933 0 01-1.617.48c-.563.117-1.13.196-1.7.235a20.365 20.365 0 01-3.094 0 14.902 14.902 0 01-1.546-.176c-.516-.086-1.023-.2-1.523-.34a9.044 9.044 0 01-1.418-.55L.62 2.061c.438-.18.902-.34 1.395-.48.492-.148.992-.27 1.5-.363A15.144 15.144 0 015.05.996a13.5 13.5 0 013.152.023c.57.07 1.117.188 1.64.352a7.061 7.061 0 011.466.645c.453.257.847.578 1.183.96.344.383.61.829.797 1.337.195.507.293 1.093.293 1.757 0 .438-.063.848-.188 1.23a3.417 3.417 0 01-.539 1.032 3.43 3.43 0 01-.855.785 3.799 3.799 0 01-1.137.469c.508.133.969.328 1.383.586.422.258.777.57 1.066.937a4 4 0 01.68 1.243c.164.46.246.953.246 1.476zm-5.953-6.68c0-.226-.047-.418-.14-.574a1.244 1.244 0 00-.352-.398 1.326 1.326 0 00-.445-.223 1.485 1.485 0 00-.422-.07c-.156 0-.309.023-.457.07a4.126 4.126 0 00-.434.164l-.07 2.602c.18 0 .402-.016.668-.047a2.79 2.79 0 00.762-.2c.25-.109.46-.265.632-.468.172-.211.258-.496.258-.856zm-1.664 3.82a3.01 3.01 0 00-.656.071l-.047 2.672c.117.023.23.047.34.07.117.016.23.024.34.024.164 0 .343-.016.539-.047a1.75 1.75 0 00.55-.211c.172-.11.313-.254.422-.434.118-.18.176-.418.176-.715 0-.296-.058-.539-.176-.726a1.219 1.219 0 00-.41-.434 1.344 1.344 0 00-.539-.21 2.769 2.769 0 00-.539-.06zm21.094-2.437c0 .68-.047 1.36-.14 2.04a48.48 48.48 0 00-3.985.421l-3.961.563c.203.562.52 1.011.95 1.347.437.336.956.504 1.558.504.312 0 .652-.058 1.02-.176a8.853 8.853 0 001.113-.433c.367-.18.718-.371 1.054-.574.336-.204.625-.387.867-.551l-.562 5.32a5.098 5.098 0 01-.996.598 6.602 6.602 0 01-1.102.398c-.383.102-.77.176-1.16.223a9.63 9.63 0 01-1.148.07 6.75 6.75 0 01-2.121-.316 6.427 6.427 0 01-1.747-.88 6.73 6.73 0 01-1.359-1.347 7.841 7.841 0 01-.973-1.687 9.743 9.743 0 01-.585-1.934 10.73 10.73 0 01-.2-2.062c0-.727.067-1.453.2-2.18a11.12 11.12 0 01.597-2.098 9.125 9.125 0 011.02-1.863 7.362 7.362 0 011.441-1.512 6.43 6.43 0 011.852-1.007c.695-.243 1.46-.364 2.297-.364.695 0 1.328.098 1.898.293.578.188 1.09.453 1.535.797.453.336.844.738 1.172 1.207.336.469.61.985.82 1.547.22.555.38 1.145.48 1.77.11.617.165 1.246.165 1.886zm-4.688-.61a3.29 3.29 0 00-.07-.667 2.04 2.04 0 00-.234-.633 1.285 1.285 0 00-.41-.457 1.067 1.067 0 00-.645-.187c-.313 0-.59.085-.832.257a2.357 2.357 0 00-.61.633c-.171.25-.312.524-.421.82-.11.297-.192.57-.246.82l3.468-.327v-.258zM40.5 12c0 1.07-.188 1.996-.563 2.777a5.273 5.273 0 01-1.523 1.922c-.64.5-1.395.871-2.262 1.113a10.52 10.52 0 01-2.777.352c-.383 0-.805-.05-1.266-.152a16.57 16.57 0 01-1.382-.375c-.47-.157-.922-.32-1.36-.492-.43-.18-.812-.348-1.148-.504l.515-4.594a8.39 8.39 0 002.203.914 9.83 9.83 0 002.93.293c.211-.016.41-.05.598-.106.195-.062.36-.152.492-.27.133-.116.2-.284.2-.503a.532.532 0 00-.141-.375.958.958 0 00-.364-.258 1.905 1.905 0 00-.504-.152 4.704 4.704 0 00-.55-.082 5.848 5.848 0 00-.504-.024h-.375a5.14 5.14 0 01-1.84-.316 4.205 4.205 0 01-1.418-.89 4.13 4.13 0 01-.914-1.407 4.973 4.973 0 01-.328-1.84c0-.922.183-1.746.55-2.472a5.795 5.795 0 011.489-1.864 6.748 6.748 0 012.144-1.183 7.706 7.706 0 012.496-.41c.383 0 .778.015 1.184.046a11.364 11.364 0 012.39.41c.383.11.747.247 1.09.41l-.445 4.759c-.531-.18-1.09-.329-1.676-.446a8.027 8.027 0 00-1.699-.187 9.91 9.91 0 00-.398.011c-.157 0-.325.012-.504.036a4.328 4.328 0 00-.528.082 1.99 1.99 0 00-.48.164.874.874 0 00-.34.258.557.557 0 00-.117.386c.008.172.07.305.188.399.124.093.28.164.468.21.196.04.407.06.633.06.234 0 .465-.005.691-.013.227-.015.438-.027.633-.035a3.4 3.4 0 01.48-.011c.626.039 1.188.171 1.688.398s.922.527 1.266.902c.351.375.617.825.797 1.348.187.516.281 1.086.281 1.711zM53.39 1.477l-.117 4.968-3.492.14-.422 10.876-4.945.258-.445-10.875-3.492.187.14-5.531 12.774-.023zm81.071 5.718c0 .758-.113 1.43-.34 2.016a4.997 4.997 0 01-.937 1.547 5.53 5.53 0 01-1.383 1.113 9.343 9.343 0 01-1.711.738c-.602.188-1.227.329-1.875.422-.649.086-1.285.133-1.91.14v4.993h-5.461v-2.602c.008-.843.011-1.68.011-2.507.008-.836.012-1.676.012-2.52l.024-2.613a118.5 118.5 0 00.011-2.86c-.007-.953.012-1.914.059-2.882a20.97 20.97 0 016.094-.891c.601 0 1.203.05 1.804.152a8.339 8.339 0 011.723.457 7.337 7.337 0 011.535.797c.477.313.887.688 1.231 1.125.343.438.613.938.808 1.5.203.563.305 1.188.305 1.875zm-5.203.399c0-.508-.156-.903-.469-1.184-.305-.289-.703-.433-1.195-.433a3.04 3.04 0 00-.516.046 4.559 4.559 0 00-.492.094l-.141 3.422c.11.016.215.024.317.024h.316c.281 0 .551-.047.809-.141.265-.094.5-.227.703-.399.203-.18.363-.386.48-.62.125-.243.188-.512.188-.81zm16.148 4.195l-.492 5.203-9.867.774.375-16.735h6.094l-.868 10.758h4.758zm15.328 5.203l-5.812.75-.703-2.648h-2.672l-.586 2.648-5.977-.586 4.664-15.61 6.516-.327 4.57 15.773zm-6.937-5.484l-.891-4.078-.867 4.078h1.758zm21.726.562c0 .883-.011 1.758-.035 2.625-.015.86-.043 1.727-.082 2.602l-6.75-.117a95.26 95.26 0 00.61-4.137 33.86 33.86 0 00.257-4.184 14.958 14.958 0 00-.058-1.254 11.856 11.856 0 00-.106-.878 4.877 4.877 0 00-.175-.832 2.037 2.037 0 00-.27-.61c-.102-.164-.226-.246-.375-.246-.266 0-.492.078-.68.234a1.96 1.96 0 00-.457.61 3.88 3.88 0 00-.281.82 9.48 9.48 0 00-.164.914 18.77 18.77 0 00-.07.867c-.008.266-.012.485-.012.657a387.59 387.59 0 00-.094 4.125 371.504 371.504 0 01-.093 4.125l-5.977.257c.156-2.757.305-5.5.445-8.226.149-2.727.266-5.469.352-8.227l5.531-.28-.047 1.874c.219-.266.453-.516.703-.75.258-.234.532-.434.821-.598.289-.171.593-.304.914-.398a3.467 3.467 0 011.031-.152c.664 0 1.246.109 1.746.328.5.218.93.515 1.289.89.359.375.66.82.902 1.336.243.508.438 1.051.586 1.63.149.577.262 1.183.34 1.816.078.625.129 1.242.153 1.851.031.61.046 1.2.046 1.77v1.558z" fill="#333"></path>
    <path d="M71.156 1.477l-.117 4.968-3.492.14-.422 10.876-4.945.258-.446-10.875-3.492.187.14-5.531 12.774-.023zm14.918 7.546c0 .711-.082 1.399-.246 2.063a7.908 7.908 0 01-.715 1.851 7.54 7.54 0 01-1.125 1.594 7.052 7.052 0 01-1.488 1.23 7.312 7.312 0 01-1.793.81 7.39 7.39 0 01-2.063.28c-.703 0-1.375-.09-2.015-.269a7.815 7.815 0 01-1.781-.75 7.606 7.606 0 01-1.512-1.172 7.796 7.796 0 01-1.148-1.523 8.337 8.337 0 01-.739-1.805 8.089 8.089 0 01-.012-3.996 8.244 8.244 0 01.704-1.852 8.151 8.151 0 011.125-1.593 7.454 7.454 0 011.465-1.254 7.16 7.16 0 011.769-.82 6.757 6.757 0 012.004-.294c1.133 0 2.164.176 3.094.528.937.351 1.734.855 2.39 1.511a6.567 6.567 0 011.535 2.368c.368.922.551 1.953.551 3.093zm-5.203.305c0-.336-.05-.66-.152-.973a2.52 2.52 0 00-.422-.843 2.082 2.082 0 00-.703-.598 1.88 1.88 0 00-.95-.234c-.367 0-.695.066-.984.199a2.276 2.276 0 00-1.219 1.36 2.858 2.858 0 00-.164.972c0 .328.047.656.141.984.094.328.234.625.422.89.187.267.418.481.691.645.281.165.606.247.973.247s.695-.07.984-.211c.297-.149.547-.344.75-.586.203-.25.36-.535.469-.856.11-.32.164-.652.164-.996zM100.863 1.5c-.351 2.75-.652 5.488-.902 8.215-.25 2.719-.488 5.457-.715 8.215l-4.805.351.211-1.804c-.156.18-.34.335-.55.468a3.22 3.22 0 01-.657.328 4.466 4.466 0 01-.726.176 4.51 4.51 0 01-.715.035 4.017 4.017 0 01-1.5-.304 5.224 5.224 0 01-1.29-.797 6.519 6.519 0 01-1.054-1.16 8.551 8.551 0 01-.797-1.395 8.856 8.856 0 01-.492-1.5c-.11-.508-.164-1-.164-1.476 0-.704.012-1.43.035-2.18.031-.758.082-1.516.152-2.274.07-.757.16-1.507.27-2.25.117-.742.262-1.453.434-2.132.953.046 1.91.09 2.87.129.962.039 1.919.05 2.872.035l-.54 2.05c-.171.68-.327 1.368-.468 2.063-.14.687-.254 1.379-.34 2.074a17.168 17.168 0 00-.129 2.11c0 .164.008.398.024.703.015.304.054.605.117.902.07.297.172.559.305.785.14.219.335.328.585.328.297 0 .563-.125.797-.375.235-.258.442-.601.621-1.03.18-.43.332-.927.457-1.49.133-.562.243-1.148.329-1.757a29.61 29.61 0 00.222-1.863c.055-.625.094-1.211.118-1.758.03-.555.05-1.05.058-1.488.016-.438.023-.778.023-1.02a8.712 8.712 0 00-.046-.914 100.066 100.066 0 003.023.047h1.172a31.81 31.81 0 001.195-.047zm14.438 5.203c0 .61-.055 1.164-.164 1.664a4.89 4.89 0 01-.492 1.36c-.227.414-.52.796-.879 1.148a7.83 7.83 0 01-1.301 1.008l2.789 4.969-5.274 1.03-1.804-4.991-1.453.046-.211 4.876h-5.039c.039-1.782.074-3.555.105-5.32.039-1.766.082-3.54.129-5.321l.047-2.672c.016-.883.047-1.773.094-2.672a15.34 15.34 0 011.617-.504 14.268 14.268 0 011.594-.304 16.177 16.177 0 011.629-.153 30.188 30.188 0 011.699-.047c.89 0 1.75.125 2.578.375.836.242 1.574.61 2.215 1.102a5.495 5.495 0 011.535 1.84c.39.734.586 1.59.586 2.566zm-5.25.375a2.76 2.76 0 00-.141-.902 1.844 1.844 0 00-.398-.703 1.682 1.682 0 00-.657-.47 2.189 2.189 0 00-.914-.175c-.156 0-.308.012-.457.035a2.646 2.646 0 00-.433.082l-.188 4.36h.282c.335 0 .675-.043 1.019-.13.352-.085.664-.218.938-.398.281-.18.507-.41.679-.691.18-.281.27-.617.27-1.008z" fill="#EC1F46"></path>
  </symbol>
  <symbol width="153" height="175" viewBox="0 0 153 175" fill="none" xmlns="http://www.w3.org/2000/svg" id="vertical-logo">
    <path d="M37.9688 34.875C37.9688 36.6042 37.6458 38.0938 37 39.3438C36.375 40.5938 35.5312 41.6562 34.4688 42.5312C33.4062 43.4062 32.1771 44.125 30.7812 44.6875C29.4062 45.2292 27.9688 45.6562 26.4688 45.9688C24.9688 46.2812 23.4583 46.4896 21.9375 46.5938C20.4375 46.6979 19.0312 46.75 17.7188 46.75C16.4271 46.75 15.0833 46.6979 13.6875 46.5938C12.3125 46.5104 10.9375 46.3542 9.5625 46.125C8.1875 45.8958 6.83333 45.5938 5.5 45.2188C4.16667 44.8229 2.90625 44.3333 1.71875 43.75L1.65625 3.5C2.82292 3.02083 4.0625 2.59375 5.375 2.21875C6.6875 1.82292 8.02083 1.5 9.375 1.25C10.75 0.979167 12.1146 0.78125 13.4688 0.65625C14.8229 0.510417 16.1354 0.4375 17.4062 0.4375C18.8854 0.4375 20.375 0.53125 21.875 0.71875C23.3958 0.90625 24.8542 1.21875 26.25 1.65625C27.6458 2.09375 28.9479 2.66667 30.1562 3.375C31.3646 4.0625 32.4167 4.91667 33.3125 5.9375C34.2292 6.95833 34.9375 8.14583 35.4375 9.5C35.9583 10.8542 36.2188 12.4167 36.2188 14.1875C36.2188 15.3542 36.0521 16.4479 35.7188 17.4688C35.3854 18.4896 34.9062 19.4062 34.2812 20.2188C33.6562 21.0312 32.8958 21.7292 32 22.3125C31.1042 22.875 30.0938 23.2917 28.9688 23.5625C30.3229 23.9167 31.5521 24.4375 32.6562 25.125C33.7812 25.8125 34.7292 26.6458 35.5 27.625C36.2917 28.6042 36.8958 29.7083 37.3125 30.9375C37.75 32.1667 37.9688 33.4792 37.9688 34.875ZM22.0938 17.0625C22.0938 16.4583 21.9688 15.9479 21.7188 15.5312C21.4688 15.0938 21.1562 14.7396 20.7812 14.4688C20.4271 14.1979 20.0312 14 19.5938 13.875C19.1771 13.75 18.8021 13.6875 18.4688 13.6875C18.0521 13.6875 17.6458 13.75 17.25 13.875C16.8542 14 16.4688 14.1458 16.0938 14.3125L15.9062 21.25C16.3854 21.25 16.9792 21.2083 17.6875 21.125C18.3958 21.0417 19.0729 20.8646 19.7188 20.5938C20.3854 20.3021 20.9479 19.8854 21.4062 19.3438C21.8646 18.7812 22.0938 18.0208 22.0938 17.0625ZM17.6562 27.25C17.0521 27.25 16.4688 27.3125 15.9062 27.4375L15.7812 34.5625C16.0938 34.625 16.3958 34.6875 16.6875 34.75C17 34.7917 17.3021 34.8125 17.5938 34.8125C18.0312 34.8125 18.5104 34.7708 19.0312 34.6875C19.5521 34.5833 20.0417 34.3958 20.5 34.125C20.9583 33.8333 21.3333 33.4479 21.625 32.9688C21.9375 32.4896 22.0938 31.8542 22.0938 31.0625C22.0938 30.2708 21.9375 29.625 21.625 29.125C21.3333 28.625 20.9688 28.2396 20.5312 27.9688C20.0938 27.6771 19.6146 27.4896 19.0938 27.4062C18.5729 27.3021 18.0938 27.25 17.6562 27.25ZM73.9062 20.75C73.9062 22.5625 73.7812 24.375 73.5312 26.1875C69.9688 26.4167 66.4271 26.7917 62.9062 27.3125C59.3854 27.8125 55.8646 28.3125 52.3438 28.8125C52.8854 30.3125 53.7292 31.5104 54.875 32.4062C56.0417 33.3021 57.4271 33.75 59.0312 33.75C59.8646 33.75 60.7708 33.5938 61.75 33.2812C62.75 32.9688 63.7396 32.5833 64.7188 32.125C65.6979 31.6458 66.6354 31.1354 67.5312 30.5938C68.4271 30.0521 69.1979 29.5625 69.8438 29.125L68.3438 43.3125C67.5312 43.9375 66.6458 44.4688 65.6875 44.9062C64.75 45.3438 63.7708 45.6979 62.75 45.9688C61.7292 46.2396 60.6979 46.4375 59.6562 46.5625C58.6146 46.6875 57.5938 46.75 56.5938 46.75C54.5312 46.75 52.6458 46.4688 50.9375 45.9062C49.2292 45.3438 47.6771 44.5625 46.2812 43.5625C44.9062 42.5417 43.6979 41.3438 42.6562 39.9688C41.6146 38.5938 40.75 37.0938 40.0625 35.4688C39.375 33.8438 38.8542 32.125 38.5 30.3125C38.1458 28.5 37.9688 26.6667 37.9688 24.8125C37.9688 22.875 38.1458 20.9375 38.5 19C38.8542 17.0625 39.3854 15.1979 40.0938 13.4062C40.8229 11.6146 41.7292 9.95833 42.8125 8.4375C43.9167 6.89583 45.1979 5.55208 46.6562 4.40625C48.1146 3.26042 49.7604 2.36458 51.5938 1.71875C53.4479 1.07292 55.4896 0.75 57.7188 0.75C59.5729 0.75 61.2604 1.01042 62.7812 1.53125C64.3229 2.03125 65.6875 2.73958 66.875 3.65625C68.0833 4.55208 69.125 5.625 70 6.875C70.8958 8.125 71.625 9.5 72.1875 11C72.7708 12.4792 73.1979 14.0521 73.4688 15.7188C73.7604 17.3646 73.9062 19.0417 73.9062 20.75ZM61.4062 19.125C61.4062 18.5417 61.3438 17.9479 61.2188 17.3438C61.0938 16.7188 60.8854 16.1562 60.5938 15.6562C60.3229 15.1562 59.9583 14.75 59.5 14.4375C59.0417 14.1042 58.4688 13.9375 57.7812 13.9375C56.9479 13.9375 56.2083 14.1667 55.5625 14.625C54.9375 15.0625 54.3958 15.625 53.9375 16.3125C53.4792 16.9792 53.1042 17.7083 52.8125 18.5C52.5208 19.2917 52.3021 20.0208 52.1562 20.6875L61.4062 19.8125V19.125ZM108 30C108 32.8542 107.5 35.3229 106.5 37.4062C105.521 39.4688 104.167 41.1771 102.438 42.5312C100.729 43.8646 98.7188 44.8542 96.4062 45.5C94.1146 46.125 91.6458 46.4375 89 46.4375C87.9792 46.4375 86.8542 46.3021 85.625 46.0312C84.4167 45.7604 83.1875 45.4271 81.9375 45.0312C80.6875 44.6146 79.4792 44.1771 78.3125 43.7188C77.1667 43.2396 76.1458 42.7917 75.25 42.375L76.625 30.125C78.3958 31.1875 80.3542 32 82.5 32.5625C84.6667 33.1042 86.7917 33.375 88.875 33.375C89.2708 33.375 89.75 33.3646 90.3125 33.3438C90.875 33.3021 91.4062 33.2083 91.9062 33.0625C92.4271 32.8958 92.8646 32.6562 93.2188 32.3438C93.5729 32.0312 93.75 31.5833 93.75 31C93.75 30.6042 93.625 30.2708 93.375 30C93.125 29.7083 92.8021 29.4792 92.4062 29.3125C92.0104 29.125 91.5625 28.9896 91.0625 28.9062C90.5625 28.8021 90.0729 28.7292 89.5938 28.6875C89.1146 28.6458 88.6667 28.625 88.25 28.625C87.8333 28.625 87.5 28.625 87.25 28.625C85.4583 28.625 83.8229 28.3438 82.3438 27.7812C80.8854 27.2188 79.625 26.4271 78.5625 25.4062C77.5208 24.3646 76.7083 23.1146 76.125 21.6562C75.5417 20.1771 75.25 18.5417 75.25 16.75C75.25 14.2917 75.7396 12.0938 76.7188 10.1562C77.7188 8.19792 79.0417 6.54167 80.6875 5.1875C82.3542 3.8125 84.2604 2.76042 86.4062 2.03125C88.5521 1.30208 90.7708 0.9375 93.0625 0.9375C94.0833 0.9375 95.1354 0.979167 96.2188 1.0625C97.3021 1.125 98.375 1.25 99.4375 1.4375C100.521 1.625 101.573 1.86458 102.594 2.15625C103.615 2.44792 104.583 2.8125 105.5 3.25L104.312 15.9375C102.896 15.4583 101.406 15.0625 99.8438 14.75C98.3021 14.4167 96.7917 14.25 95.3125 14.25C95.0417 14.25 94.6875 14.2604 94.25 14.2812C93.8333 14.2812 93.3854 14.3125 92.9062 14.375C92.4479 14.4167 91.9792 14.4896 91.5 14.5938C91.0208 14.6979 90.5938 14.8438 90.2188 15.0312C89.8438 15.1979 89.5417 15.4271 89.3125 15.7188C89.0833 16.0104 88.9792 16.3542 89 16.75C89.0208 17.2083 89.1875 17.5625 89.5 17.8125C89.8333 18.0625 90.25 18.25 90.75 18.375C91.2708 18.4792 91.8333 18.5312 92.4375 18.5312C93.0625 18.5312 93.6771 18.5208 94.2812 18.5C94.8854 18.4583 95.4479 18.4271 95.9688 18.4062C96.4896 18.3646 96.9167 18.3542 97.25 18.375C98.9167 18.4792 100.417 18.8333 101.75 19.4375C103.083 20.0417 104.208 20.8438 105.125 21.8438C106.062 22.8438 106.771 24.0417 107.25 25.4375C107.75 26.8125 108 28.3333 108 30ZM142.375 1.9375L142.062 15.1875L132.75 15.5625L131.625 44.5625L118.438 45.25L117.25 16.25L107.938 16.75L108.312 2L142.375 1.9375ZM38 145.188C38 147.208 37.6979 149 37.0938 150.562C36.4896 152.125 35.6562 153.5 34.5938 154.688C33.5521 155.854 32.3229 156.844 30.9062 157.656C29.4896 158.448 27.9688 159.104 26.3438 159.625C24.7396 160.125 23.0729 160.5 21.3438 160.75C19.6146 160.979 17.9167 161.104 16.25 161.125V174.438H1.6875C1.6875 172.062 1.6875 169.75 1.6875 167.5C1.70833 165.25 1.71875 163.021 1.71875 160.812C1.73958 158.583 1.75 156.344 1.75 154.094C1.77083 151.844 1.79167 149.521 1.8125 147.125C1.85417 144.583 1.86458 142.042 1.84375 139.5C1.82292 136.958 1.875 134.396 2 131.812C4.66667 131.021 7.33333 130.427 10 130.031C12.6667 129.635 15.4167 129.438 18.25 129.438C19.8542 129.438 21.4583 129.573 23.0625 129.844C24.6667 130.094 26.1979 130.5 27.6562 131.062C29.1354 131.625 30.5 132.333 31.75 133.188C33.0208 134.021 34.1146 135.021 35.0312 136.188C35.9479 137.354 36.6667 138.688 37.1875 140.188C37.7292 141.688 38 143.354 38 145.188ZM24.125 146.25C24.125 144.896 23.7083 143.844 22.875 143.094C22.0625 142.323 21 141.938 19.6875 141.938C19.25 141.938 18.7917 141.979 18.3125 142.062C17.8542 142.125 17.4167 142.208 17 142.312L16.625 151.438C16.9167 151.479 17.1979 151.5 17.4688 151.5C17.7396 151.5 18.0208 151.5 18.3125 151.5C19.0625 151.5 19.7812 151.375 20.4688 151.125C21.1771 150.875 21.8021 150.521 22.3438 150.062C22.8854 149.583 23.3125 149.031 23.625 148.406C23.9583 147.76 24.125 147.042 24.125 146.25ZM67.1875 157.438L65.875 171.312L39.5625 173.375L40.5625 128.75H56.8125L54.5 157.438H67.1875ZM108.062 171.312L92.5625 173.312L90.6875 166.25H83.5625L82 173.312L66.0625 171.75L78.5 130.125L95.875 129.25L108.062 171.312ZM89.5625 156.688L87.1875 145.812L84.875 156.688H89.5625ZM147.5 158.188C147.5 160.542 147.469 162.875 147.406 165.188C147.365 167.479 147.292 169.792 147.188 172.125L129.188 171.812C129.812 168.125 130.354 164.448 130.812 160.781C131.271 157.094 131.5 153.375 131.5 149.625C131.5 149.354 131.49 148.917 131.469 148.312C131.448 147.708 131.406 147.031 131.344 146.281C131.281 145.51 131.188 144.729 131.062 143.938C130.958 143.125 130.802 142.385 130.594 141.719C130.406 141.052 130.167 140.51 129.875 140.094C129.604 139.656 129.271 139.438 128.875 139.438C128.167 139.438 127.562 139.646 127.062 140.062C126.583 140.479 126.177 141.021 125.844 141.688C125.531 142.333 125.281 143.062 125.094 143.875C124.906 144.688 124.76 145.5 124.656 146.312C124.573 147.125 124.51 147.896 124.469 148.625C124.448 149.333 124.438 149.917 124.438 150.375C124.333 154.062 124.25 157.729 124.188 161.375C124.125 165 124.042 168.667 123.938 172.375L108 173.062C108.417 165.708 108.812 158.396 109.188 151.125C109.583 143.854 109.896 136.542 110.125 129.188L124.875 128.438L124.75 133.438C125.333 132.729 125.958 132.062 126.625 131.438C127.312 130.812 128.042 130.281 128.812 129.844C129.583 129.385 130.396 129.031 131.25 128.781C132.125 128.51 133.042 128.375 134 128.375C135.771 128.375 137.323 128.667 138.656 129.25C139.99 129.833 141.135 130.625 142.094 131.625C143.052 132.625 143.854 133.812 144.5 135.188C145.146 136.542 145.667 137.99 146.062 139.531C146.458 141.073 146.76 142.688 146.969 144.375C147.177 146.042 147.312 147.688 147.375 149.312C147.458 150.938 147.5 152.51 147.5 154.031C147.5 155.552 147.5 156.938 147.5 158.188Z" fill="white"/>
    <path d="M34.6875 65.9375L34.375 79.1875L25.0625 79.5625L23.9375 108.562L10.75 109.25L9.5625 80.25L0.25 80.75L0.625 66L34.6875 65.9375ZM74.4688 86.0625C74.4688 87.9583 74.25 89.7917 73.8125 91.5625C73.375 93.3125 72.7396 94.9583 71.9062 96.5C71.0938 98.0417 70.0938 99.4583 68.9062 100.75C67.7396 102.021 66.4167 103.115 64.9375 104.031C63.4792 104.948 61.8854 105.667 60.1562 106.188C58.4271 106.688 56.5938 106.938 54.6562 106.938C52.7812 106.938 50.9896 106.698 49.2812 106.219C47.5938 105.74 46.0104 105.073 44.5312 104.219C43.0521 103.344 41.7083 102.302 40.5 101.094C39.3125 99.8646 38.2917 98.5104 37.4375 97.0312C36.6042 95.5312 35.9479 93.9271 35.4688 92.2188C35.0104 90.5104 34.7812 88.7292 34.7812 86.875C34.7812 85.0625 35 83.2917 35.4375 81.5625C35.875 79.8125 36.5 78.1667 37.3125 76.625C38.1458 75.0833 39.1458 73.6667 40.3125 72.375C41.4792 71.0833 42.7812 69.9688 44.2188 69.0312C45.6771 68.0938 47.25 67.3646 48.9375 66.8438C50.625 66.3229 52.4062 66.0625 54.2812 66.0625C57.3021 66.0625 60.0521 66.5312 62.5312 67.4688C65.0312 68.4062 67.1562 69.75 68.9062 71.5C70.6771 73.2292 72.0417 75.3333 73 77.8125C73.9792 80.2708 74.4688 83.0208 74.4688 86.0625ZM60.5938 86.875C60.5938 85.9792 60.4583 85.1146 60.1875 84.2812C59.9375 83.4271 59.5625 82.6771 59.0625 82.0312C58.5625 81.3646 57.9375 80.8333 57.1875 80.4375C56.4583 80.0208 55.6146 79.8125 54.6562 79.8125C53.6771 79.8125 52.8021 79.9896 52.0312 80.3438C51.2604 80.6979 50.5938 81.1875 50.0312 81.8125C49.4896 82.4167 49.0729 83.1354 48.7812 83.9688C48.4896 84.7812 48.3438 85.6458 48.3438 86.5625C48.3438 87.4375 48.4688 88.3125 48.7188 89.1875C48.9688 90.0625 49.3438 90.8542 49.8438 91.5625C50.3438 92.2708 50.9583 92.8438 51.6875 93.2812C52.4375 93.7188 53.3021 93.9375 54.2812 93.9375C55.2604 93.9375 56.1354 93.75 56.9062 93.375C57.6979 92.9792 58.3646 92.4583 58.9062 91.8125C59.4479 91.1458 59.8646 90.3854 60.1562 89.5312C60.4479 88.6771 60.5938 87.7917 60.5938 86.875ZM113.906 66C112.969 73.3333 112.167 80.6354 111.5 87.9062C110.833 95.1562 110.198 102.458 109.594 109.812L96.7812 110.75L97.3438 105.938C96.9271 106.417 96.4375 106.833 95.875 107.188C95.3333 107.542 94.75 107.833 94.125 108.062C93.5 108.271 92.8542 108.427 92.1875 108.531C91.5208 108.615 90.8854 108.646 90.2812 108.625C88.8646 108.604 87.5312 108.333 86.2812 107.812C85.0312 107.271 83.8854 106.562 82.8438 105.688C81.8021 104.792 80.8646 103.76 80.0312 102.594C79.1979 101.406 78.4896 100.167 77.9062 98.875C77.3438 97.5625 76.9062 96.2292 76.5938 94.875C76.3021 93.5208 76.1562 92.2083 76.1562 90.9375C76.1562 89.0625 76.1875 87.125 76.25 85.125C76.3333 83.1042 76.4688 81.0833 76.6562 79.0625C76.8438 77.0417 77.0833 75.0417 77.375 73.0625C77.6875 71.0833 78.0729 69.1875 78.5312 67.375C81.0729 67.5 83.625 67.6146 86.1875 67.7188C88.75 67.8229 91.3021 67.8542 93.8438 67.8125C93.3646 69.625 92.8854 71.4479 92.4062 73.2812C91.9479 75.0938 91.5312 76.9271 91.1562 78.7812C90.7812 80.6146 90.4792 82.4583 90.25 84.3125C90.0208 86.1667 89.9062 88.0417 89.9062 89.9375C89.9062 90.375 89.9271 91 89.9688 91.8125C90.0104 92.625 90.1146 93.4271 90.2812 94.2188C90.4688 95.0104 90.7396 95.7083 91.0938 96.3125C91.4688 96.8958 91.9896 97.1875 92.6562 97.1875C93.4479 97.1875 94.1562 96.8542 94.7812 96.1875C95.4062 95.5 95.9583 94.5833 96.4375 93.4375C96.9167 92.2917 97.3229 90.9688 97.6562 89.4688C98.0104 87.9688 98.3021 86.4062 98.5312 84.7812C98.7812 83.1354 98.9792 81.4792 99.125 79.8125C99.2708 78.1458 99.375 76.5833 99.4375 75.125C99.5208 73.6458 99.5729 72.3229 99.5938 71.1562C99.6354 69.9896 99.6562 69.0833 99.6562 68.4375C99.6562 68.0208 99.6458 67.6146 99.625 67.2188C99.6042 66.8229 99.5729 66.4167 99.5312 66C100.885 66.0417 102.229 66.0729 103.562 66.0938C104.896 66.1146 106.24 66.125 107.594 66.125C108.635 66.125 109.677 66.125 110.719 66.125C111.781 66.1042 112.844 66.0625 113.906 66ZM152.406 79.875C152.406 81.5 152.26 82.9792 151.969 84.3125C151.698 85.625 151.26 86.8333 150.656 87.9375C150.052 89.0417 149.271 90.0625 148.312 91C147.354 91.9375 146.198 92.8333 144.844 93.6875L152.281 106.938L138.219 109.688L133.406 96.375L129.531 96.5L128.969 109.5H115.531C115.635 104.75 115.729 100.021 115.812 95.3125C115.917 90.6042 116.031 85.875 116.156 81.125C116.198 78.7292 116.24 76.3542 116.281 74C116.323 71.6458 116.406 69.2708 116.531 66.875C117.99 66.3333 119.427 65.8854 120.844 65.5312C122.26 65.1771 123.677 64.9062 125.094 64.7188C126.531 64.5104 127.979 64.375 129.438 64.3125C130.917 64.2292 132.427 64.1875 133.969 64.1875C136.344 64.1875 138.635 64.5208 140.844 65.1875C143.073 65.8333 145.042 66.8125 146.75 68.125C148.458 69.4375 149.823 71.0729 150.844 73.0312C151.885 74.9896 152.406 77.2708 152.406 79.875ZM138.406 80.875C138.406 80 138.281 79.1979 138.031 78.4688C137.802 77.7396 137.448 77.1146 136.969 76.5938C136.51 76.0521 135.927 75.6354 135.219 75.3438C134.531 75.0312 133.719 74.875 132.781 74.875C132.365 74.875 131.958 74.9062 131.562 74.9688C131.167 75.0104 130.781 75.0833 130.406 75.1875L129.906 86.8125H130.656C131.552 86.8125 132.458 86.6979 133.375 86.4688C134.312 86.2396 135.146 85.8854 135.875 85.4062C136.625 84.9271 137.229 84.3125 137.688 83.5625C138.167 82.8125 138.406 81.9167 138.406 80.875Z" fill="#EC1F46"/>
  </symbol>
  <symbol fill="none" xmlns="http://www.w3.org/2000/svg" viewBox="0 0 16 16" id="search">
    <path fill-rule="evenodd" clip-rule="evenodd" d="M7.333 2.667a4.667 4.667 0 100 9.333 4.667 4.667 0 000-9.333zm-6 4.666a6 6 0 1112 0 6 6 0 01-12 0z" fill="#fff"></path>
    <path fill-rule="evenodd" clip-rule="evenodd" d="M10.629 10.629c.26-.26.682-.26.942 0l2.9 2.9a.667.667 0 11-.942.942l-2.9-2.9a.667.667 0 010-.942z" fill="#fff"></path>
  </symbol>
  <symbol viewBox="0 0 48 8" fill="none" xmlns="http://www.w3.org/2000/svg" id="stars">
    <path fill-rule="evenodd" clip-rule="evenodd" d="M3.99999 0.333374C4.12686 0.333374 4.24273 0.405398 4.29889 0.519166L5.25141 2.44886L7.38153 2.76021C7.50705 2.77856 7.61128 2.86656 7.6504 2.98723C7.68953 3.1079 7.65677 3.24032 7.5659 3.32883L6.02483 4.82983L6.38853 6.95036C6.40997 7.07542 6.35856 7.20182 6.2559 7.27639C6.15324 7.35097 6.01714 7.36079 5.90484 7.30173L3.99999 6.29999L2.09514 7.30173C1.98283 7.36079 1.84674 7.35097 1.74408 7.27639C1.64142 7.20182 1.59 7.07542 1.61145 6.95036L1.97515 4.82983L0.434078 3.32883C0.343206 3.24032 0.310448 3.1079 0.349574 2.98723C0.3887 2.86656 0.492927 2.77856 0.618447 2.76021L2.74857 2.44886L3.70109 0.519166C3.75724 0.405398 3.87312 0.333374 3.99999 0.333374ZM3.99999 1.41979L3.26889 2.90092C3.22038 2.9992 3.12665 3.06735 3.0182 3.0832L1.38279 3.32224L2.5659 4.47459C2.64452 4.55117 2.68041 4.66155 2.66186 4.76972L2.38272 6.39727L3.84484 5.62835C3.94197 5.57727 4.05801 5.57727 4.15514 5.62835L5.61726 6.39727L5.33812 4.76972C5.31957 4.66155 5.35545 4.55117 5.43408 4.47459L6.61719 3.32224L4.98178 3.0832C4.87333 3.06735 4.7796 2.9992 4.73109 2.90092L3.99999 1.41979Z" fill="#F2994A"/>
    <path d="M2.33333 5L1 3L3 2.66667L4 1L5 2.66667L7 3.33333L5.66667 4.66667L6 7L4 6L2 7L2.33333 5Z" fill="#F2994A"/>
    <path fill-rule="evenodd" clip-rule="evenodd" d="M14 0.333374C14.1269 0.333374 14.2427 0.405398 14.2989 0.519166L15.2514 2.44886L17.3815 2.76021C17.5071 2.77856 17.6113 2.86656 17.6504 2.98723C17.6895 3.1079 17.6568 3.24032 17.5659 3.32883L16.0248 4.82983L16.3885 6.95036C16.41 7.07542 16.3586 7.20182 16.2559 7.27639C16.1532 7.35097 16.0171 7.36079 15.9048 7.30173L14 6.29999L12.0951 7.30173C11.9828 7.36079 11.8467 7.35097 11.7441 7.27639C11.6414 7.20182 11.59 7.07542 11.6115 6.95036L11.9751 4.82983L10.4341 3.32883C10.3432 3.24032 10.3104 3.1079 10.3496 2.98723C10.3887 2.86656 10.4929 2.77856 10.6184 2.76021L12.7486 2.44886L13.7011 0.519166C13.7572 0.405398 13.8731 0.333374 14 0.333374ZM14 1.41979L13.2689 2.90092C13.2204 2.9992 13.1267 3.06735 13.0182 3.0832L11.3828 3.32224L12.5659 4.47459C12.6445 4.55117 12.6804 4.66155 12.6619 4.76972L12.3827 6.39727L13.8448 5.62835C13.942 5.57727 14.058 5.57727 14.1551 5.62835L15.6173 6.39727L15.3381 4.76972C15.3196 4.66155 15.3555 4.55117 15.4341 4.47459L16.6172 3.32224L14.9818 3.0832C14.8733 3.06735 14.7796 2.9992 14.7311 2.90092L14 1.41979Z" fill="#F2994A"/>
    <path d="M12.3333 5L11 3L13 2.66667L14 1L15 2.66667L17 3.33333L15.6667 4.66667L16 7L14 6L12 7L12.3333 5Z" fill="#F2994A"/>
    <path fill-rule="evenodd" clip-rule="evenodd" d="M24 0.333374C24.1269 0.333374 24.2427 0.405398 24.2989 0.519166L25.2514 2.44886L27.3815 2.76021C27.5071 2.77856 27.6113 2.86656 27.6504 2.98723C27.6895 3.1079 27.6568 3.24032 27.5659 3.32883L26.0248 4.82983L26.3885 6.95036C26.41 7.07542 26.3586 7.20182 26.2559 7.27639C26.1532 7.35097 26.0171 7.36079 25.9048 7.30173L24 6.29999L22.0951 7.30173C21.9828 7.36079 21.8467 7.35097 21.7441 7.27639C21.6414 7.20182 21.59 7.07542 21.6115 6.95036L21.9751 4.82983L20.4341 3.32883C20.3432 3.24032 20.3104 3.1079 20.3496 2.98723C20.3887 2.86656 20.4929 2.77856 20.6184 2.76021L22.7486 2.44886L23.7011 0.519166C23.7572 0.405398 23.8731 0.333374 24 0.333374ZM24 1.41979L23.2689 2.90092C23.2204 2.9992 23.1267 3.06735 23.0182 3.0832L21.3828 3.32224L22.5659 4.47459C22.6445 4.55117 22.6804 4.66155 22.6619 4.76972L22.3827 6.39727L23.8448 5.62835C23.942 5.57727 24.058 5.57727 24.1551 5.62835L25.6173 6.39727L25.3381 4.76972C25.3196 4.66155 25.3555 4.55117 25.4341 4.47459L26.6172 3.32224L24.9818 3.0832C24.8733 3.06735 24.7796 2.9992 24.7311 2.90092L24 1.41979Z" fill="#F2994A"/>
    <path d="M22.3333 5L21 3L23 2.66667L24 1L25 2.66667L27 3.33333L25.6667 4.66667L26 7L24 6L22 7L22.3333 5Z" fill="#F2994A"/>
    <path fill-rule="evenodd" clip-rule="evenodd" d="M34 0.333374C34.1269 0.333374 34.2427 0.405398 34.2989 0.519166L35.2514 2.44886L37.3815 2.76021C37.5071 2.77856 37.6113 2.86656 37.6504 2.98723C37.6895 3.1079 37.6568 3.24032 37.5659 3.32883L36.0248 4.82983L36.3885 6.95036C36.41 7.07542 36.3586 7.20182 36.2559 7.27639C36.1532 7.35097 36.0171 7.36079 35.9048 7.30173L34 6.29999L32.0951 7.30173C31.9828 7.36079 31.8467 7.35097 31.7441 7.27639C31.6414 7.20182 31.59 7.07542 31.6115 6.95036L31.9751 4.82983L30.4341 3.32883C30.3432 3.24032 30.3104 3.1079 30.3496 2.98723C30.3887 2.86656 30.4929 2.77856 30.6184 2.76021L32.7486 2.44886L33.7011 0.519166C33.7572 0.405398 33.8731 0.333374 34 0.333374ZM34 1.41979L33.2689 2.90092C33.2204 2.9992 33.1267 3.06735 33.0182 3.0832L31.3828 3.32224L32.5659 4.47459C32.6445 4.55117 32.6804 4.66155 32.6619 4.76972L32.3827 6.39727L33.8448 5.62835C33.942 5.57727 34.058 5.57727 34.1551 5.62835L35.6173 6.39727L35.3381 4.76972C35.3196 4.66155 35.3555 4.55117 35.4341 4.47459L36.6172 3.32224L34.9818 3.0832C34.8733 3.06735 34.7796 2.9992 34.7311 2.90092L34 1.41979Z" fill="#F2994A"/>
    <path d="M32.3333 5L31 3L33 2.66667L34 1L35 2.66667L37 3.33333L35.6667 4.66667L36 7L34 6L32 7L32.3333 5Z" fill="#F2994A"/>
    <path fill-rule="evenodd" clip-rule="evenodd" d="M44 0.333374C44.1269 0.333374 44.2427 0.405398 44.2989 0.519166L45.2514 2.44886L47.3815 2.76021C47.5071 2.77856 47.6113 2.86656 47.6504 2.98723C47.6895 3.1079 47.6568 3.24032 47.5659 3.32883L46.0248 4.82983L46.3885 6.95036C46.41 7.07542 46.3586 7.20182 46.2559 7.27639C46.1532 7.35097 46.0171 7.36079 45.9048 7.30173L44 6.29999L42.0951 7.30173C41.9828 7.36079 41.8467 7.35097 41.7441 7.27639C41.6414 7.20182 41.59 7.07542 41.6115 6.95036L41.9751 4.82983L40.4341 3.32883C40.3432 3.24032 40.3104 3.1079 40.3496 2.98723C40.3887 2.86656 40.4929 2.77856 40.6184 2.76021L42.7486 2.44886L43.7011 0.519166C43.7572 0.405398 43.8731 0.333374 44 0.333374ZM44 1.41979L43.2689 2.90092C43.2204 2.9992 43.1267 3.06735 43.0182 3.0832L41.3828 3.32224L42.5659 4.47459C42.6445 4.55117 42.6804 4.66155 42.6619 4.76972L42.3827 6.39727L43.8448 5.62835C43.942 5.57727 44.058 5.57727 44.1551 5.62835L45.6173 6.39727L45.3381 4.76972C45.3196 4.66155 45.3555 4.55117 45.4341 4.47459L46.6172 3.32224L44.9818 3.0832C44.8733 3.06735 44.7796 2.9992 44.7311 2.90092L44 1.41979Z" fill="#F2994A"/>
    <path d="M42.3333 5L41 3L43 2.66667L44 1L45 2.66667L47 3.33333L45.6667 4.66667L46 7L44 6L42 7L42.3333 5Z" fill="#F2994A"/>
  </symbol>
  <symbol viewBox="0 0 14 14" fill="none" xmlns="http://www.w3.org/2000/svg" id="user">
    <path fill-rule="evenodd" clip-rule="evenodd" d="M2.60427 9.0209C3.15125 8.47392 3.89312 8.16663 4.66667 8.16663H9.33333C10.1069 8.16663 10.8487 8.47392 11.3957 9.0209C11.9427 9.56788 12.25 10.3097 12.25 11.0833V12.25C12.25 12.5721 11.9888 12.8333 11.6667 12.8333C11.3445 12.8333 11.0833 12.5721 11.0833 12.25V11.0833C11.0833 10.6192 10.899 10.174 10.5708 9.84586C10.2426 9.51767 9.79746 9.33329 9.33333 9.33329H4.66667C4.20254 9.33329 3.75742 9.51767 3.42923 9.84586C3.10104 10.174 2.91667 10.6192 2.91667 11.0833V12.25C2.91667 12.5721 2.6555 12.8333 2.33333 12.8333C2.01117 12.8333 1.75 12.5721 1.75 12.25V11.0833C1.75 10.3097 2.05729 9.56788 2.60427 9.0209Z" fill="white"/>
    <path fill-rule="evenodd" clip-rule="evenodd" d="M7.00001 2.33329C6.03351 2.33329 5.25001 3.11679 5.25001 4.08329C5.25001 5.04979 6.03351 5.83329 7.00001 5.83329C7.96651 5.83329 8.75001 5.04979 8.75001 4.08329C8.75001 3.11679 7.96651 2.33329 7.00001 2.33329ZM4.08334 4.08329C4.08334 2.47246 5.38918 1.16663 7.00001 1.16663C8.61084 1.16663 9.91668 2.47246 9.91668 4.08329C9.91668 5.69412 8.61084 6.99996 7.00001 6.99996C5.38918 6.99996 4.08334 5.69412 4.08334 4.08329Z" fill="white"/>
  </symbol>
  <symbol viewBox="0 0 14 14" xmlns="http://www.w3.org/2000/svg" id="phone">
    <g clip-path="url(#clip0)">
    <path d="M11.6667 13.3583C11.6083 13.3583 11.55 13.3583 11.4917 13.3583C9.625 13.125 7.75833 12.4833 6.18333 11.4917C4.725 10.5583 3.44166 9.27498 2.50833 7.81665C1.45833 6.24165 0.816663 4.37498 0.641663 2.50832C0.641663 2.04165 0.758329 1.57498 1.05 1.22498C1.34166 0.874984 1.75 0.64165 2.21666 0.583317C2.275 0.583317 2.33333 0.583317 2.39166 0.583317H4.14166C5.01666 0.583317 5.775 1.22498 5.89166 2.09998C5.95 2.62498 6.06666 3.14998 6.24166 3.61665C6.475 4.25832 6.3 4.95832 5.83333 5.48332L5.425 5.89165C6.125 6.94165 7 7.87498 8.10833 8.57498L8.51666 8.16665C8.98333 7.69998 9.74166 7.52498 10.3833 7.75832C10.85 7.93332 11.375 8.04998 11.9 8.10832C12.775 8.22498 13.4167 8.98332 13.4167 9.85832V11.6083C13.4167 12.075 13.2417 12.5417 12.8917 12.8333C12.5417 13.125 12.1333 13.3583 11.6667 13.3583ZM4.14166 1.74998H2.39166C2.21666 1.74998 2.04166 1.86665 1.925 1.98332C1.86666 2.09998 1.80833 2.21665 1.80833 2.39165C1.98333 4.08332 2.56666 5.71665 3.5 7.17498C4.375 8.51665 5.48333 9.68332 6.825 10.5C8.28333 11.4333 9.91666 12.0167 11.6083 12.1917C11.8417 12.1917 11.9583 12.1333 12.075 12.0167C12.1917 11.9 12.25 11.7833 12.25 11.6083V9.85832C12.25 9.56665 12.0167 9.33332 11.725 9.27498C11.1417 9.21665 10.5583 9.04165 9.975 8.80832C9.74166 8.74998 9.50833 8.74998 9.33333 8.92498L8.575 9.68332C8.4 9.85832 8.10833 9.91665 7.875 9.79998C6.3 8.92498 5.01666 7.64165 4.14166 6.06665C4.08333 5.83332 4.14166 5.54165 4.31666 5.36665L5.075 4.60832C5.19166 4.49165 5.25 4.19998 5.19166 4.02498C4.95833 3.44165 4.84166 2.85832 4.725 2.27498C4.725 1.98332 4.43333 1.74998 4.14166 1.74998ZM11.0833 5.83332C10.7917 5.83332 10.5583 5.65832 10.5 5.36665C10.325 4.43332 9.56666 3.73332 8.63333 3.49998C8.34166 3.44165 8.10833 3.14998 8.16666 2.79998C8.225 2.50832 8.51666 2.27498 8.86666 2.33332C10.2667 2.62498 11.375 3.67498 11.6083 5.07498C11.6667 5.36665 11.4917 5.71665 11.1417 5.77498C11.1417 5.77498 11.1417 5.83332 11.0833 5.83332ZM13.4167 5.77498C13.125 5.77498 12.8917 5.54165 12.8333 5.24998C12.6 3.09165 10.9083 1.39998 8.69166 1.10832C8.4 1.04998 8.16666 0.758317 8.16666 0.46665C8.16666 0.174984 8.51666 -0.0583496 8.80833 -0.0583496C11.55 0.233317 13.65 2.33332 13.9417 5.07498C14 5.36665 13.7667 5.65832 13.4167 5.71665C13.475 5.77498 13.4167 5.77498 13.4167 5.77498Z"/>
    </g>
    <defs>
    <clipPath id="clip0">
    <rect width="14" height="14" fill="white"/>
    </clipPath>
    </defs>
  </symbol>
  <symbol viewBox="0 0 14 14" fill="none" xmlns="http://www.w3.org/2000/svg" id="home">
    <path fill-rule="evenodd" clip-rule="evenodd" d="M6.64186 0.706252C6.85251 0.542415 7.14747 0.542415 7.35812 0.706252L12.6081 4.78958C12.7502 4.9001 12.8333 5.07003 12.8333 5.25004V11.6667C12.8333 12.1308 12.6489 12.576 12.3208 12.9041C11.9926 13.2323 11.5475 13.4167 11.0833 13.4167H2.91666C2.45253 13.4167 2.00741 13.2323 1.67922 12.9041C1.35103 12.576 1.16666 12.1308 1.16666 11.6667V5.25004C1.16666 5.07003 1.24977 4.9001 1.39186 4.78958L6.64186 0.706252ZM2.33332 5.53534V11.6667C2.33332 11.8214 2.39478 11.9698 2.50418 12.0792C2.61357 12.1886 2.76195 12.25 2.91666 12.25H11.0833C11.238 12.25 11.3864 12.1886 11.4958 12.0792C11.6052 11.9698 11.6667 11.8214 11.6667 11.6667V5.53534L6.99999 1.90571L2.33332 5.53534Z" fill="white"/>
    <path fill-rule="evenodd" clip-rule="evenodd" d="M4.66666 7.00004C4.66666 6.67787 4.92782 6.41671 5.24999 6.41671H8.74999C9.07216 6.41671 9.33332 6.67787 9.33332 7.00004V12.8334C9.33332 13.1555 9.07216 13.4167 8.74999 13.4167C8.42782 13.4167 8.16666 13.1555 8.16666 12.8334V7.58337H5.83332V12.8334C5.83332 13.1555 5.57216 13.4167 5.24999 13.4167C4.92782 13.4167 4.66666 13.1555 4.66666 12.8334V7.00004Z" fill="white"/>
  </symbol>
  <symbol viewBox="0 0 10 18" xmlns="http://www.w3.org/2000/svg" id="arrow-left">
    <path fill-rule="evenodd" clip-rule="evenodd" d="M9.63388 0.616117C10.122 1.10427 10.122 1.89573 9.63388 2.38388L3.01777 9L9.63388 15.6161C10.122 16.1043 10.122 16.8957 9.63388 17.3839C9.14573 17.872 8.35427 17.872 7.86612 17.3839L0.366117 9.88388C-0.122039 9.39573 -0.122039 8.60427 0.366117 8.11612L7.86612 0.616117C8.35427 0.127961 9.14573 0.127961 9.63388 0.616117Z"  fill-opacity="0.8"/>
  </symbol>
  <symbol viewBox="0 0 10 18" xmlns="http://www.w3.org/2000/svg" id="arrow-right">
    <path fill-rule="evenodd" clip-rule="evenodd" d="M0.366117 0.616117C0.854272 0.127961 1.64573 0.127961 2.13388 0.616117L9.63388 8.11612C10.122 8.60427 10.122 9.39573 9.63388 9.88388L2.13388 17.3839C1.64573 17.872 0.854272 17.872 0.366117 17.3839C-0.122039 16.8957 -0.122039 16.1043 0.366117 15.6161L6.98223 9L0.366117 2.38388C-0.122039 1.89573 -0.122039 1.10427 0.366117 0.616117Z" fill-opacity="0.8"/>
  </symbol>
  <symbol viewBox="0 0 14 14" fill="none" xmlns="http://www.w3.org/2000/svg" id="map-pin">
    <path fill-rule="evenodd" clip-rule="evenodd" d="M7.00008 1.16667C5.7624 1.16667 4.57542 1.65833 3.70025 2.5335C2.82508 3.40867 2.33341 4.59566 2.33341 5.83333C2.33341 7.64053 3.50926 9.39415 4.79855 10.7551C5.43127 11.4229 6.06597 11.9697 6.54314 12.3497C6.72073 12.4911 6.87584 12.6089 7.00008 12.7007C7.12432 12.6089 7.27943 12.4911 7.45702 12.3497C7.93419 11.9697 8.56889 11.4229 9.20161 10.7551C10.4909 9.39415 11.6667 7.64053 11.6667 5.83333C11.6667 4.59566 11.1751 3.40867 10.2999 2.5335C9.42474 1.65833 8.23776 1.16667 7.00008 1.16667ZM7.00008 13.4167C6.67651 13.902 6.67636 13.9019 6.67619 13.9018L6.67452 13.9007L6.67064 13.8981L6.65727 13.8891C6.64591 13.8813 6.62971 13.8703 6.60899 13.8559C6.56756 13.8272 6.50802 13.7854 6.43296 13.7312C6.2829 13.6228 6.07046 13.4646 5.8164 13.2623C5.30919 12.8584 4.63139 12.275 3.95161 11.5574C2.6159 10.1475 1.16675 8.10947 1.16675 5.83333C1.16675 4.28624 1.78133 2.80251 2.87529 1.70854C3.96925 0.614581 5.45299 0 7.00008 0C8.54718 0 10.0309 0.614581 11.1249 1.70854C12.2188 2.80251 12.8334 4.28624 12.8334 5.83333C12.8334 8.10947 11.3843 10.1475 10.0486 11.5574C9.36877 12.275 8.69097 12.8584 8.18377 13.2623C7.9297 13.4646 7.71726 13.6228 7.5672 13.7312C7.49214 13.7854 7.43261 13.8272 7.39117 13.8559C7.37045 13.8703 7.35425 13.8813 7.3429 13.8891L7.32953 13.8981L7.32564 13.9007L7.32441 13.9015C7.32424 13.9016 7.32366 13.902 7.00008 13.4167ZM7.00008 13.4167L7.32366 13.902C7.12772 14.0327 6.87213 14.0324 6.67619 13.9018L7.00008 13.4167Z" fill="white"/>
    <path fill-rule="evenodd" clip-rule="evenodd" d="M7.00008 4.66667C6.35575 4.66667 5.83341 5.189 5.83341 5.83333C5.83341 6.47767 6.35575 7 7.00008 7C7.64441 7 8.16675 6.47767 8.16675 5.83333C8.16675 5.189 7.64441 4.66667 7.00008 4.66667ZM4.66675 5.83333C4.66675 4.54467 5.71142 3.5 7.00008 3.5C8.28875 3.5 9.33342 4.54467 9.33342 5.83333C9.33342 7.122 8.28875 8.16667 7.00008 8.16667C5.71142 8.16667 4.66675 7.122 4.66675 5.83333Z" fill="white"/>
  </symbol>
  <symbol viewBox="0 0 21 21" xmlns="http://www.w3.org/2000/svg" id="yotube">
    <path d="M12.1831 10.3247L9.82477 9.22429C9.61897 9.12874 9.44992 9.23584 9.44992 9.46369V11.5364C9.44992 11.7642 9.61897 11.8713 9.82477 11.7758L12.182 10.6754C12.3889 10.5788 12.3889 10.4213 12.1831 10.3247ZM10.4999 0.420044C4.93282 0.420044 0.419922 4.93294 0.419922 10.5C0.419922 16.0671 4.93282 20.58 10.4999 20.58C16.067 20.58 20.5799 16.0671 20.5799 10.5C20.5799 4.93294 16.067 0.420044 10.4999 0.420044ZM10.4999 14.595C5.34022 14.595 5.24992 14.1299 5.24992 10.5C5.24992 6.87019 5.34022 6.40504 10.4999 6.40504C15.6596 6.40504 15.7499 6.87019 15.7499 10.5C15.7499 14.1299 15.6596 14.595 10.4999 14.595Z"/>
  </symbol>
  <symbol viewBox="0 0 20 20" xmlns="http://www.w3.org/2000/svg" id="inst">
    <path d="M10 20C8.64583 20 7.35026 19.7363 6.11328 19.209C4.8763 18.6816 3.81185 17.972 2.91992 17.0801C2.02799 16.1882 1.31836 15.1237 0.791016 13.8867C0.263672 12.6497 0 11.3542 0 10C0 8.64583 0.263672 7.35026 0.791016 6.11328C1.31836 4.8763 2.02799 3.81185 2.91992 2.91992C3.81185 2.02799 4.8763 1.31836 6.11328 0.791016C7.35026 0.263672 8.64583 0 10 0C11.3542 0 12.6497 0.263672 13.8867 0.791016C15.1237 1.31836 16.1882 2.02799 17.0801 2.91992C17.972 3.81185 18.6816 4.8763 19.209 6.11328C19.7363 7.35026 20 8.64583 20 10C20 11.3542 19.7363 12.6497 19.209 13.8867C18.6816 15.1237 17.972 16.1882 17.0801 17.0801C16.1882 17.972 15.1237 18.6816 13.8867 19.209C12.6497 19.7363 11.3542 20 10 20ZM15 6.25C15 5.91146 14.8796 5.61849 14.6387 5.37109C14.3978 5.1237 14.1016 5 13.75 5H6.25C5.91146 5 5.61849 5.1237 5.37109 5.37109C5.1237 5.61849 5 5.91146 5 6.25V7.5H7.22656C7.98177 6.66667 8.90625 6.25 10 6.25C11.0938 6.25 12.0182 6.66667 12.7734 7.5H15V6.25ZM7.5 10C7.5 10.6901 7.74414 11.2793 8.23242 11.7676C8.7207 12.2559 9.3099 12.5 10 12.5C10.6901 12.5 11.2793 12.2559 11.7676 11.7676C12.2559 11.2793 12.5 10.6901 12.5 10C12.5 9.3099 12.2559 8.7207 11.7676 8.23242C11.2793 7.74414 10.6901 7.5 10 7.5C9.3099 7.5 8.7207 7.74414 8.23242 8.23242C7.74414 8.7207 7.5 9.3099 7.5 10ZM15 8.75H13.5156C13.6719 9.17969 13.75 9.59635 13.75 10C13.75 11.0417 13.3854 11.9271 12.6562 12.6562C11.9271 13.3854 11.0417 13.75 10 13.75C8.95833 13.75 8.07292 13.3854 7.34375 12.6562C6.61458 11.9271 6.25 11.0417 6.25 10C6.25 9.59635 6.32812 9.17969 6.48438 8.75H5V13.75C5 14.1016 5.12044 14.3978 5.36133 14.6387C5.60221 14.8796 5.89844 15 6.25 15H13.75C14.1016 15 14.3978 14.8796 14.6387 14.6387C14.8796 14.3978 15 14.1016 15 13.75V8.75Z"/>
  </symbol>
  <symbol viewBox="0 0 20 20" xmlns="http://www.w3.org/2000/svg" id="fb">
    <path d="M10.001 0.00195312C4.47895 0.00195312 0.00195312 4.47895 0.00195312 10.001C0.00195312 14.991 3.65795 19.127 8.43895 19.88V12.892H5.89895V10.001H8.43895V7.79795C8.43895 5.28995 9.93195 3.90695 12.215 3.90695C13.309 3.90695 14.455 4.10195 14.455 4.10195V6.56095H13.191C11.951 6.56095 11.563 7.33295 11.563 8.12395V9.99895H14.334L13.891 12.89H11.563V19.878C16.344 19.129 20 14.992 20 10.001C20 4.47895 15.523 0.00195312 10.001 0.00195312Z"/>
  </symbol>
  <symbol viewBox="0 0 14 20" fill="none" xmlns="http://www.w3.org/2000/svg" id="map-marker">
    <path d="M7 0C3.13 0 0 3.13 0 7C0 11.17 4.42 16.92 6.24 19.11C6.64 19.59 7.37 19.59 7.77 19.11C9.58 16.92 14 11.17 14 7C14 3.13 10.87 0 7 0ZM7 9.5C6.33696 9.5 5.70107 9.23661 5.23223 8.76777C4.76339 8.29893 4.5 7.66304 4.5 7C4.5 6.33696 4.76339 5.70107 5.23223 5.23223C5.70107 4.76339 6.33696 4.5 7 4.5C7.66304 4.5 8.29893 4.76339 8.76777 5.23223C9.23661 5.70107 9.5 6.33696 9.5 7C9.5 7.66304 9.23661 8.29893 8.76777 8.76777C8.29893 9.23661 7.66304 9.5 7 9.5Z" fill="#BDBDBD"/>
  </symbol>
  <symbol viewBox="0 0 20 20" fill="none" xmlns="http://www.w3.org/2000/svg" id="phone-call">
    <path d="M17.1667 9.54079H19.0834C19.0834 4.62454 15.3717 0.916748 10.4488 0.916748V2.83341C14.3415 2.83341 17.1667 5.65379 17.1667 9.54079Z" fill="#BDBDBD"/>
    <path d="M10.4584 6.66672C12.4737 6.66672 13.3334 7.52635 13.3334 9.54172H15.25C15.25 6.4511 13.549 4.75006 10.4584 4.75006V6.66672ZM13.7378 11.8829C13.5536 11.7156 13.3116 11.6263 13.0629 11.634C12.8142 11.6417 12.5782 11.7457 12.4047 11.9241L10.1114 14.2826C9.55944 14.1772 8.44969 13.8312 7.30736 12.6918C6.16503 11.5485 5.81907 10.4359 5.71653 9.88768L8.07307 7.59343C8.25171 7.4201 8.35591 7.18405 8.3636 6.93526C8.37129 6.68646 8.28187 6.44443 8.11428 6.26039L4.57323 2.36668C4.40557 2.18206 4.17254 2.07008 3.92363 2.05451C3.67473 2.03895 3.42956 2.12102 3.24019 2.28331L1.16061 4.06677C0.994924 4.23305 0.896032 4.45436 0.882693 4.68872C0.868318 4.92831 0.594234 10.6036 4.9949 15.0061C8.83398 18.8443 13.6429 19.1251 14.9673 19.1251C15.1609 19.1251 15.2797 19.1193 15.3114 19.1174C15.5457 19.1043 15.7669 19.0049 15.9324 18.8385L17.7149 16.758C17.8773 16.5687 17.9595 16.3236 17.9441 16.0747C17.9287 15.8258 17.8169 15.5927 17.6324 15.4249L13.7378 11.8829Z" fill="#BDBDBD"/>
  </symbol>
  <symbol viewBox="0 0 18 14" fill="none" xmlns="http://www.w3.org/2000/svg" id="email">
    <path d="M15.6667 0.333252H2.33341C1.41675 0.333252 0.675081 1.08325 0.675081 1.99992L0.666748 11.9999C0.666748 12.9166 1.41675 13.6666 2.33341 13.6666H15.6667C16.5834 13.6666 17.3334 12.9166 17.3334 11.9999V1.99992C17.3334 1.08325 16.5834 0.333252 15.6667 0.333252ZM15.3334 3.87492L9.44175 7.55825C9.17508 7.72492 8.82508 7.72492 8.55842 7.55825L2.66675 3.87492C2.58319 3.82801 2.51001 3.76464 2.45166 3.68863C2.3933 3.61262 2.35097 3.52557 2.32723 3.43273C2.30349 3.33989 2.29883 3.2432 2.31355 3.14851C2.32826 3.05382 2.36203 2.9631 2.41282 2.88184C2.4636 2.80058 2.53035 2.73046 2.60902 2.67575C2.68769 2.62103 2.77664 2.58284 2.87049 2.5635C2.96435 2.54416 3.06115 2.54406 3.15504 2.56321C3.24894 2.58236 3.33797 2.62036 3.41675 2.67492L9.00008 6.16658L14.5834 2.67492C14.6622 2.62036 14.7512 2.58236 14.8451 2.56321C14.939 2.54406 15.0358 2.54416 15.1297 2.5635C15.2235 2.58284 15.3125 2.62103 15.3911 2.67575C15.4698 2.73046 15.5366 2.80058 15.5873 2.88184C15.6381 2.9631 15.6719 3.05382 15.6866 3.14851C15.7013 3.2432 15.6967 3.33989 15.6729 3.43273C15.6492 3.52557 15.6069 3.61262 15.5485 3.68863C15.4902 3.76464 15.417 3.82801 15.3334 3.87492Z" fill="#BDBDBD"/>
  </symbol>
</svg>